Coordinates
version=1
nRows=16
nColumns=33
inDegrees=yes

Units are S.I. units (second, meters, Newtons, ...)
Angles are in degrees.

endheader
time	ground_thorax_rot_x	ground_thorax_rot_y	ground_thorax_rot_z	ground_thorax_tx	ground_thorax_ty	ground_thorax_tz	clav_prot_r	clav_elev_r	scapula_abduction_r	scapula_elevation_r	scapula_upward_rot_r	scapula_winging_r	shoulder_elv_r	plane_of_elev_r	axial_rot_r	elbow_flexion_r	pro_sup_r	wrist_flex_r	wrist_dev_r	clav_prot_l	clav_elev_l	scapula_abduction_l	scapula_elevation_l	scapula_upward_rot_l	scapula_winging_l	shoulder_elv_l	plane_of_elev_l	axial_rot_l	elbow_flexion_l	pro_sup_l	wrist_flex_l	wrist_dev_l
      5.13000000	    -90.00000000	     90.00000000	    -90.00000000	   -229.27451479	    860.86078081	     -7.36182598	     19.67975992	     40.39897515	     45.00000000	     45.00000000	     25.81324877	   2147.83052590	   -256.53956018	     27.50340033	   -131.22846347	   1453.76454648	   -316.29471439	     18.35380949	      6.65752038	    -45.00000000	      7.91773110	     38.07133394	    -17.46740398	    -45.00000000	  -2415.68506781	   -770.29707912	    141.72559544	      0.59202849	   -710.17584750	     27.64475053	      9.61580382	    -22.28262181
      5.14000000	    -90.00000000	     90.00000000	    -90.00000000	   -230.41395521	    863.18710672	     -7.26786254	     19.75789876	     40.41136170	     45.00000000	     45.00000000	     25.58365787	   2148.14102629	   -256.39812824	     27.23999630	   -131.20525370	   1453.79832372	   -316.34582542	     18.08689420	      6.50146360	    -45.00000000	      6.16840938	     37.60220595	    -16.77139226	    -45.00000000	  -2415.13085860	   -769.92021069	    141.38884538	     -0.35339369	   -709.91213137	     28.25120986	      9.72190873	    -22.48683805
      5.15000000	    -90.00000000	     90.00000000	    -90.00000000	   -231.28212545	    865.35267648	     -7.17563307	     19.82100860	     40.22567474	     45.00000000	     45.00000000	     25.38616349	   2147.91739525	   -256.53580948	     27.51526357	   -131.24196430	   1453.90211684	   -316.34084857	     18.30839258	      6.50439865	    -45.00000000	      6.94232211	     37.48300391	    -16.86046198	    -45.00000000	  -2415.64069656	   -770.00237196	    141.52854617	     -0.47459549	   -709.90463345	     28.65276484	      9.29816480	    -22.34145367
      5.16000000	    -90.00000000	     90.00000000	    -90.00000000	   -231.88790509	    867.34864487	     -7.08444532	     19.87240664	     40.19943209	     45.00000000	     45.00000000	     25.12627275	   2148.10568742	   -256.37484683	     27.33703448	   -131.28078260	   1453.91800549	   -316.32078314	     18.12225576	      6.40249826	    -45.00000000	      6.29541403	     37.07502568	    -16.57642830	    -45.00000000	  -2415.38997511	   -769.95356238	    141.24990733	     -0.87661057	   -709.65867478	     29.12006352	      9.47035698	    -22.54945096
      5.17000000	    -90.00000000	     90.00000000	    -90.00000000	   -232.24119913	    869.18085167	     -6.99405222	     19.97380099	     40.04975372	     45.00000000	     45.00000000	     24.91336791	   2147.98683108	   -256.44953591	     27.47574048	   -131.30100096	   1454.04224210	   -316.26470584	     18.23952354	      6.34273529	    -45.00000000	      6.34535678	     36.98828307	    -16.45331978	    -45.00000000	  -2415.61315616	   -769.81692816	    141.31900324	     -1.06306151	   -709.70332924	     29.46604163	      9.18464350	    -22.44340773
      5.18000000	    -90.00000000	     90.00000000	    -90.00000000	   -232.35826392	    870.86244061	     -6.89554499	     20.04916750	     40.00952284	     45.00000000	     45.00000000	     24.60126646	   2148.10763062	   -256.33589894	     27.34244221	   -131.31161484	   1454.13680205	   -316.20064070	     18.10887546	      6.24328290	    -45.00000000	      6.12280557	     36.73639063	    -16.24138509	    -45.00000000	  -2415.47280817	   -769.78994063	    141.16592466	     -1.34283741	   -709.59273347	     29.81794929	      9.32812933	    -22.57214178
      5.19000000	    -90.00000000	     90.00000000	    -90.00000000	   -232.24660631	    872.39773897	     -6.79151745	     20.17262378	     39.86562487	     45.00000000	     45.00000000	     24.31164996	   2147.97164672	   -256.38653666	     27.45625947	   -131.22778707	   1454.28668043	   -316.11193008	     18.20692143	      6.16030474	    -45.00000000	      6.00662372	     36.73226310	    -16.11436421	    -45.00000000	  -2415.59073715	   -769.66034652	    141.21037493	     -1.51455576	   -709.72243258	     30.06197132	      9.07469424	    -22.44624690
      5.20000000	    -90.00000000	     90.00000000	    -90.00000000	   -231.91550382	    873.79616469	     -6.68339604	     20.26410296	     39.84236964	     45.00000000	     45.00000000	     24.00525833	   2148.18885374	   -256.29323380	     27.23702652	   -131.27912670	   1454.48641809	   -316.03916475	     18.03502864	      6.01597699	    -45.00000000	      5.94767092	     36.56407585	    -15.98779357	    -45.00000000	  -2415.46534657	   -769.70538724	    141.05741188	     -1.78525068	   -709.60804400	     30.31453233	      9.29894569	    -22.59248159
      5.21000000	    -90.00000000	     90.00000000	    -90.00000000	   -231.36777435	    875.05125457	     -6.58178478	     20.40175706	     39.69692373	     45.00000000	     45.00000000	     23.69915067	   2147.81684025	   -256.36241309	     27.57920832	   -131.16036268	   1454.71744246	   -315.91098566	     18.34087806	      5.99864776	    -45.00000000	      5.86532880	     36.60049696	    -15.83572833	    -45.00000000	  -2415.69598811	   -769.58008803	    141.23906682	     -1.78536483	   -709.61180772	     30.40182038	      8.77482901	    -22.38021898
      5.22000000	    -90.00000000	     90.00000000	    -90.00000000	   -230.62009096	    876.18025171	     -6.48448726	     20.49499908	     39.72232413	     45.00000000	     45.00000000	     23.54705916	   2148.31226352	   -256.30551431	     26.97096754	   -131.49967078	   1454.58189673	   -315.78068552	     17.84694518	      5.78740257	    -45.00000000	      5.91509872	     36.39899474	    -15.91540430	    -45.00000000	  -2415.49051519	   -769.90598328	    140.96123006	     -2.06444153	   -709.44689657	     30.66561330	      9.33408105	    -22.67442252
      5.23000000	    -90.00000000	     90.00000000	    -90.00000000	   -229.68285301	    877.19340036	     -6.39802108	     20.62945795	     39.64244180	     45.00000000	     45.00000000	     23.40812372	   2147.99848368	   -256.53945782	     27.21661311	   -131.53989654	   1454.71006995	   -315.51211984	     18.08727560	      5.75864320	    -45.00000000	      5.99887020	     36.41917141	    -15.85271363	    -45.00000000	  -2415.73984098	   -769.94687433	    141.14290481	     -1.94921797	   -709.33588717	     30.78056808	      8.80239635	    -22.49347610
      5.24000000	    -90.00000000	     90.00000000	    -90.00000000	   -228.58594846	    878.11349313	     -6.31863851	     20.70502174	     39.59918931	     45.00000000	     45.00000000	     22.58448936	   2147.81138799	   -255.94690948	     27.37330714	   -131.44080841	   1454.85344088	   -315.23483114	     18.23431213	      5.81570488	    -45.00000000	      5.53427909	     36.09656722	    -15.54788568	    -45.00000000	  -2415.02522071	   -769.99756203	    140.90424888	     -2.29116937	   -709.54802912	     31.06668359	      9.02766450	    -22.61173511
      5.25000000	    -90.00000000	     90.00000000	    -90.00000000	   -227.35040088	    878.97395816	     -6.24382005	     20.90081183	     39.57357684	     45.00000000	     45.00000000	     22.78447580	   2147.87498065	   -256.47793849	     27.16711979	   -131.88056656	   1454.88900758	   -314.84389747	     18.21116843	      5.70920626	    -45.00000000	      5.87087531	     36.43732679	    -15.68423991	    -45.00000000	  -2415.66957644	   -770.05062228	    141.11988198	     -2.27097630	   -709.18685078	     31.27577650	      8.61064903	    -22.49942065
      5.26000000	    -90.00000000	     90.00000000	    -90.00000000	   -226.01854520	    879.80741850	     -6.16503864	     21.02271234	     39.46501933	     45.00000000	     45.00000000	     22.40136678	   2147.89607778	   -256.34227753	     27.12889174	   -132.09845219	   1454.91537617	   -314.36824979	     18.11394674	      5.51396286	    -45.00000000	      5.57155166	     36.41937429	    -15.48272234	    -45.00000000	  -2415.31747132	   -770.03330321	    140.85142786	     -2.35622607	   -708.91421948	     31.63986871	      8.64688533	    -22.68256707
      5.27000000	    -90.00000000	     90.00000000	    -90.00000000	   -224.61428152	    880.63540159	     -6.08550218	     21.18062290	     39.45747653	     45.00000000	     45.00000000	     22.13821717	   2147.85431148	   -256.45354442	     27.05677523	   -132.31388236	   1455.13291096	   -313.76089358	     18.21295183	      5.47434747	    -45.00000000	      5.66152703	     36.43768249	    -15.56161802	    -45.00000000	  -2415.50550582	   -770.21942520	    141.06419615	     -2.28151535	   -708.93221583	     32.07326588	      8.43622570	    -22.60610682
      5.28000000	    -90.00000000	     90.00000000	    -90.00000000	   -223.16723309	    881.47090468	     -6.00991187	     21.31776843	     39.40860794	     45.00000000	     45.00000000	     21.85870271	   2147.81764701	   -256.44397495	     26.95684947	   -132.56116416	   1455.25405374	   -313.03131026	     18.19788768	      5.34608421	    -45.00000000	      5.49083596	     36.50955478	    -15.47214614	    -45.00000000	  -2415.32898738	   -770.25820751	    140.89232537	     -2.41188878	   -708.74472443	     32.61577415	      8.32385694	    -22.67519110
